<?xml version="1.0" encoding="utf-8"?>
<!-- Generator: Adobe Illustrator 25.4.0, SVG Export Plug-In . SVG Version: 6.00 Build 0)  -->
<svg version="1.1" id="Ebene_1" xmlns="http://www.w3.org/2000/svg" xmlns:xlink="http://www.w3.org/1999/xlink" x="0px" y="0px"
	 viewBox="0 0 45.4 45.4" style="enable-background:new 0 0 45.4 45.4;" xml:space="preserve">
<g>
	<g>
		<path d="M22.7,2.2c-9.4,0-17,7.7-17,17c0,5.3,5.6,14.3,12.9,22.7c0.6-0.2,1.3-0.5,1.9-0.6c0-0.2,0.1-0.5,0.1-0.8
			c-2.3-0.8-3.9-2.9-3.9-5.3c0-3.1,2.6-5.6,5.9-5.6s5.9,2.5,5.9,5.6c0,2.4-1.6,4.5-3.9,5.3c0,0.3,0,0.6,0.1,0.8
			c0.7,0.1,1.4,0.3,1.8,0.6c8.1-9.6,13-17.2,13-22.7C39.6,9.8,32.1,2.2,22.7,2.2z M22.7,26.8c-3.4,0-6.5-1.9-8-4.9
			c0-0.1-0.1-0.1-0.1-0.2l0,0c-0.6-1.1-0.9-2.5-0.9-3.9c0-0.5,0-0.9,0.1-1.4c0.5,0,1,0.1,1.5,0.1c1.7,0,3.3-0.3,4.8-0.8
			c-1.7,1.3-3.4,2.2-4.6,2.6c6.4-0.6,10.3-3.7,12.1-8l0,0c0.8,2.1,2.2,3.9,3.8,5.4c0.1,0.7,0.2,1.4,0.2,2.1
			C31.7,22.8,27.7,26.8,22.7,26.8z"/>
	</g>
</g>
</svg>
